<svg xmlns="http://www.w3.org/2000/svg" width="204" height="135.939" viewBox="0 0 204 135.939"><defs><style>.a{fill:#fff;}</style></defs><g transform="translate(-103 -60)"><path class="a" d="M239.747-104.987a3.4,3.4,0,0,0,3.4-3.4,3.4,3.4,0,0,0-3.4-3.4,3.4,3.4,0,0,0-3.4,3.4h0a3.4,3.4,0,0,0,3.4,3.4h0" transform="translate(-98.396 199.677)"/><path class="a" d="M405.818-107.8a1.484,1.484,0,0,0-1.483,1.483,1.483,1.483,0,0,0,1.483,1.483,1.483,1.483,0,0,0,1.483-1.477,1.489,1.489,0,0,0-1.483-1.489" transform="translate(-100.301 199.632)"/><path class="a" d="M402.673-113.205c-14.376-24.569-38.027-22.816-39.006-22.82-37.291,0-91.056,64.915-93.33,67.679a24.614,24.614,0,0,1-3.147,2.985,2.229,2.229,0,0,1-2.536.152q-1.247-.713.032-5.011c1.771-6.578,5.01-18.456,5.01-18.456.439-3.542-.212-5.776-2.817-6.183-3.367-.374-9.031,2.795-15.87,13.94l-4.449,6.7c.479-2.076,1.215-5.644,2.008-8.96.377-.511,12.088-13.855,13.3-15.621,17.36-25.28,13.561-38.212,10.638-40.306-2.532-1.814-5.474-.782-8.939,2.315-7.827,7-14.778,32.428-21.086,56.595,0,0-10.587,13.362-10.875,14.678,1.342-6.1,3.919-15.6,6.717-25.31,1.561-5.414.692-6.314-.661-6.765-1.039-.346-4.065.494-5.416,5.974-3,12.181-6.363,31.319-6.363,31.319-11.073,14.18-15.692,21.9-20.6,31.132A34.907,34.907,0,0,0,201-12.964a8.9,8.9,0,0,0,5.328,8.414c6.94,2.45,12.071-4.844,14.282-8.579,6.472-10.952,10.893-47.561,11-48.135s9.874-13.425,10.565-14.315L239.98-67.32,238.9-62.579c-.494,3.619,2.533,5.979,5.391,1.926l2.147-4.195c2.615-5.747,5.193-10.647,7.9-15.41,3.35-5.908,5.574-7.927,7.881-8.669,2.472-.432,1.823,3.086-.593,10.175-.683,2.625-3.33,12.825-3.45,14.336a6.392,6.392,0,0,0,.819,3.912q1,1.637,3.937,1.582T269.9-63.14c1.112-1.146,1.836-1.977,2.885-3.2.547-.664,55.068-66.523,90.878-66.523.219,0,22.806-1.774,36.284,21.256,0,0,.828,1.545,2.144.7a1.78,1.78,0,0,0,.584-2.3M263.491-129.417c3.065-4.449,5.748-6.284,7.3-4.579s1.359,5.994-1.112,13.038a81.531,81.531,0,0,1-8.651,18.228c-3.44,5.16-9.972,12.655-11.727,14.72,0,0,8.358-32.961,14.193-41.407M218.322-22.5c-1.637,5.571-3.241,9.315-4.707,11.3-4.047,5.478-7.663,3.171-8.515.844-.679-1.854-1.186-5.768.927-11.926C209.735-33.072,222.39-52.389,225.8-56.2,223-40.9,219.956-28.07,218.322-22.5" transform="translate(-97.995 199.997)"/></g></svg>