<svg xmlns="http://www.w3.org/2000/svg" width="23.998" height="15" viewBox="0 0 23.998 15"><defs><style>.a{fill:#00b0aa;}</style></defs><g transform="translate(-109.667 -604.524)"><path class="a" d="M9.873,102.759a3.6,3.6,0,0,0,1.133-.831,3.228,3.228,0,0,0,.686-2.156,3.689,3.689,0,0,0-.68-2.234,4.578,4.578,0,0,0-3.845-1.56H0v14.63H6.683a10.449,10.449,0,0,0,2.1-.2,4.121,4.121,0,0,0,1.676-.735,4.057,4.057,0,0,0,1.05-1.151,4.227,4.227,0,0,0,.662-2.333,3.838,3.838,0,0,0-.578-2.144A3.333,3.333,0,0,0,9.873,102.759ZM2.957,98.52H6.185a5.691,5.691,0,0,1,1.754.228,1.312,1.312,0,0,1,.8,1.353,1.377,1.377,0,0,1-.6,1.284,3.025,3.025,0,0,1-1.569.363H2.957Zm5.1,9.293a3.536,3.536,0,0,1-1.5.258h-3.6v-3.9H6.608a3.81,3.81,0,0,1,1.485.246,1.569,1.569,0,0,1,.944,1.571A1.839,1.839,0,0,1,8.061,107.813Z" transform="translate(109.667 508.545)"/><rect class="a" width="6.356" height="1.821" transform="translate(125.003 605.207)"/><path class="a" d="M290.652,175.523a5.218,5.218,0,0,0-.876-2.236,4.416,4.416,0,0,0-1.893-1.6,6.266,6.266,0,0,0-2.58-.507,5.34,5.34,0,0,0-3.921,1.5,5.82,5.82,0,0,0-1.51,4.314,5.2,5.2,0,0,0,1.676,4.33,6.019,6.019,0,0,0,3.863,1.331,5.375,5.375,0,0,0,4.126-1.576,3.549,3.549,0,0,0,1.062-1.956H287.67a2.361,2.361,0,0,1-.591.744,2.451,2.451,0,0,1-1.59.5,2.939,2.939,0,0,1-1.582-.408,2.585,2.585,0,0,1-1.149-2.281h7.991A13.751,13.751,0,0,0,290.652,175.523Zm-7.823.28a2.932,2.932,0,0,1,.765-1.674,2.306,2.306,0,0,1,1.711-.619,2.546,2.546,0,0,1,1.7.582,2.366,2.366,0,0,1,.764,1.712Z" transform="translate(-157.086 436.871)"/></g></svg>