<svg xmlns="http://www.w3.org/2000/svg" width="15" height="15" viewBox="0 0 15 15"><defs><style>.a{fill:#00b0aa;}</style></defs><path class="a" d="M18.18,17.84h0v-5.5c0-2.691-.579-4.764-3.726-4.764a3.266,3.266,0,0,0-2.942,1.617h-.044V7.825H8.489V17.84H11.6V12.881c0-1.306.247-2.568,1.864-2.568,1.593,0,1.617,1.49,1.617,2.652V17.84Z" transform="translate(-3.183 -2.84)"/><path class="a" d="M.4,7.977h3.11V17.991H.4Z" transform="translate(-0.148 -2.991)"/><path class="a" d="M1.8,0A1.81,1.81,0,1,0,3.6,1.8,1.8,1.8,0,0,0,1.8,0Z"/></svg>